<svg xmlns="http://www.w3.org/2000/svg">
<!-- Phosphor Icons 2.1.1, regular weight. MIT; see PHOSPHOR-LICENSE.txt. -->
<symbol id="list" viewBox="0 0 256 256"><path d="M224,128a8,8,0,0,1-8,8H40a8,8,0,0,1,0-16H216A8,8,0,0,1,224,128ZM40,72H216a8,8,0,0,0,0-16H40a8,8,0,0,0,0,16ZM216,184H40a8,8,0,0,0,0,16H216a8,8,0,0,0,0-16Z"/></symbol>
<symbol id="x" viewBox="0 0 256 256"><path d="M205.66,194.34a8,8,0,0,1-11.32,11.32L128,139.31,61.66,205.66a8,8,0,0,1-11.32-11.32L116.69,128,50.34,61.66A8,8,0,0,1,61.66,50.34L128,116.69l66.34-66.35a8,8,0,0,1,11.32,11.32L139.31,128Z"/></symbol>
<symbol id="squares-four" viewBox="0 0 256 256"><path d="M104,40H56A16,16,0,0,0,40,56v48a16,16,0,0,0,16,16h48a16,16,0,0,0,16-16V56A16,16,0,0,0,104,40Zm0,64H56V56h48v48Zm96-64H152a16,16,0,0,0-16,16v48a16,16,0,0,0,16,16h48a16,16,0,0,0,16-16V56A16,16,0,0,0,200,40Zm0,64H152V56h48v48Zm-96,32H56a16,16,0,0,0-16,16v48a16,16,0,0,0,16,16h48a16,16,0,0,0,16-16V152A16,16,0,0,0,104,136Zm0,64H56V152h48v48Zm96-64H152a16,16,0,0,0-16,16v48a16,16,0,0,0,16,16h48a16,16,0,0,0,16-16V152A16,16,0,0,0,200,136Zm0,64H152V152h48v48Z"/></symbol>
<symbol id="paw-print" viewBox="0 0 256 256"><path d="M212,80a28,28,0,1,0,28,28A28,28,0,0,0,212,80Zm0,40a12,12,0,1,1,12-12A12,12,0,0,1,212,120ZM72,108a28,28,0,1,0-28,28A28,28,0,0,0,72,108ZM44,120a12,12,0,1,1,12-12A12,12,0,0,1,44,120ZM92,88A28,28,0,1,0,64,60,28,28,0,0,0,92,88Zm0-40A12,12,0,1,1,80,60,12,12,0,0,1,92,48Zm72,40a28,28,0,1,0-28-28A28,28,0,0,0,164,88Zm0-40a12,12,0,1,1-12,12A12,12,0,0,1,164,48Zm23.12,100.86a35.3,35.3,0,0,1-16.87-21.14,44,44,0,0,0-84.5,0A35.25,35.25,0,0,1,69,148.82,40,40,0,0,0,88,224a39.48,39.48,0,0,0,15.52-3.13,64.09,64.09,0,0,1,48.87,0,40,40,0,0,0,34.73-72ZM168,208a24,24,0,0,1-9.45-1.93,80.14,80.14,0,0,0-61.19,0,24,24,0,0,1-20.71-43.26,51.22,51.22,0,0,0,24.46-30.67,28,28,0,0,1,53.78,0,51.27,51.27,0,0,0,24.53,30.71A24,24,0,0,1,168,208Z"/></symbol>
<symbol id="clipboard-text" viewBox="0 0 256 256"><path d="M168,152a8,8,0,0,1-8,8H96a8,8,0,0,1,0-16h64A8,8,0,0,1,168,152Zm-8-40H96a8,8,0,0,0,0,16h64a8,8,0,0,0,0-16Zm56-64V216a16,16,0,0,1-16,16H56a16,16,0,0,1-16-16V48A16,16,0,0,1,56,32H92.26a47.92,47.92,0,0,1,71.48,0H200A16,16,0,0,1,216,48ZM96,64h64a32,32,0,0,0-64,0ZM200,48H173.25A47.93,47.93,0,0,1,176,64v8a8,8,0,0,1-8,8H88a8,8,0,0,1-8-8V64a47.93,47.93,0,0,1,2.75-16H56V216H200Z"/></symbol>
<symbol id="gear" viewBox="0 0 256 256"><path d="M128,80a48,48,0,1,0,48,48A48.05,48.05,0,0,0,128,80Zm0,80a32,32,0,1,1,32-32A32,32,0,0,1,128,160Zm88-29.84q.06-2.16,0-4.32l14.92-18.64a8,8,0,0,0,1.48-7.06,107.21,107.21,0,0,0-10.88-26.25,8,8,0,0,0-6-3.93l-23.72-2.64q-1.48-1.56-3-3L186,40.54a8,8,0,0,0-3.94-6,107.71,107.71,0,0,0-26.25-10.87,8,8,0,0,0-7.06,1.49L130.16,40Q128,40,125.84,40L107.2,25.11a8,8,0,0,0-7.06-1.48A107.6,107.6,0,0,0,73.89,34.51a8,8,0,0,0-3.93,6L67.32,64.27q-1.56,1.49-3,3L40.54,70a8,8,0,0,0-6,3.94,107.71,107.71,0,0,0-10.87,26.25,8,8,0,0,0,1.49,7.06L40,125.84Q40,128,40,130.16L25.11,148.8a8,8,0,0,0-1.48,7.06,107.21,107.21,0,0,0,10.88,26.25,8,8,0,0,0,6,3.93l23.72,2.64q1.49,1.56,3,3L70,215.46a8,8,0,0,0,3.94,6,107.71,107.71,0,0,0,26.25,10.87,8,8,0,0,0,7.06-1.49L125.84,216q2.16.06,4.32,0l18.64,14.92a8,8,0,0,0,7.06,1.48,107.21,107.21,0,0,0,26.25-10.88,8,8,0,0,0,3.93-6l2.64-23.72q1.56-1.48,3-3L215.46,186a8,8,0,0,0,6-3.94,107.71,107.71,0,0,0,10.87-26.25,8,8,0,0,0-1.49-7.06Zm-16.1-6.5a73.93,73.93,0,0,1,0,8.68,8,8,0,0,0,1.74,5.48l14.19,17.73a91.57,91.57,0,0,1-6.23,15L187,173.11a8,8,0,0,0-5.1,2.64,74.11,74.11,0,0,1-6.14,6.14,8,8,0,0,0-2.64,5.1l-2.51,22.58a91.32,91.32,0,0,1-15,6.23l-17.74-14.19a8,8,0,0,0-5-1.75h-.48a73.93,73.93,0,0,1-8.68,0,8,8,0,0,0-5.48,1.74L100.45,215.8a91.57,91.57,0,0,1-15-6.23L82.89,187a8,8,0,0,0-2.64-5.1,74.11,74.11,0,0,1-6.14-6.14,8,8,0,0,0-5.1-2.64L46.43,170.6a91.32,91.32,0,0,1-6.23-15l14.19-17.74a8,8,0,0,0,1.74-5.48,73.93,73.93,0,0,1,0-8.68,8,8,0,0,0-1.74-5.48L40.2,100.45a91.57,91.57,0,0,1,6.23-15L69,82.89a8,8,0,0,0,5.1-2.64,74.11,74.11,0,0,1,6.14-6.14A8,8,0,0,0,82.89,69L85.4,46.43a91.32,91.32,0,0,1,15-6.23l17.74,14.19a8,8,0,0,0,5.48,1.74,73.93,73.93,0,0,1,8.68,0,8,8,0,0,0,5.48-1.74L155.55,40.2a91.57,91.57,0,0,1,15,6.23L173.11,69a8,8,0,0,0,2.64,5.1,74.11,74.11,0,0,1,6.14,6.14,8,8,0,0,0,5.1,2.64l22.58,2.51a91.32,91.32,0,0,1,6.23,15l-14.19,17.74A8,8,0,0,0,199.87,123.66Z"/></symbol>
<symbol id="sign-out" viewBox="0 0 256 256"><path d="M120,216a8,8,0,0,1-8,8H48a8,8,0,0,1-8-8V40a8,8,0,0,1,8-8h64a8,8,0,0,1,0,16H56V208h56A8,8,0,0,1,120,216Zm109.66-93.66-40-40a8,8,0,0,0-11.32,11.32L204.69,120H112a8,8,0,0,0,0,16h92.69l-26.35,26.34a8,8,0,0,0,11.32,11.32l40-40A8,8,0,0,0,229.66,122.34Z"/></symbol>
<symbol id="magnifying-glass" viewBox="0 0 256 256"><path d="M229.66,218.34l-50.07-50.06a88.11,88.11,0,1,0-11.31,11.31l50.06,50.07a8,8,0,0,0,11.32-11.32ZM40,112a72,72,0,1,1,72,72A72.08,72.08,0,0,1,40,112Z"/></symbol>
<symbol id="bell" viewBox="0 0 256 256"><path d="M221.8,175.94C216.25,166.38,208,139.33,208,104a80,80,0,1,0-160,0c0,35.34-8.26,62.38-13.81,71.94A16,16,0,0,0,48,200H88.81a40,40,0,0,0,78.38,0H208a16,16,0,0,0,13.8-24.06ZM128,216a24,24,0,0,1-22.62-16h45.24A24,24,0,0,1,128,216ZM48,184c7.7-13.24,16-43.92,16-80a64,64,0,1,1,128,0c0,36.05,8.28,66.73,16,80Z"/></symbol>
<symbol id="calendar-check" viewBox="0 0 256 256"><path d="M208,32H184V24a8,8,0,0,0-16,0v8H88V24a8,8,0,0,0-16,0v8H48A16,16,0,0,0,32,48V208a16,16,0,0,0,16,16H208a16,16,0,0,0,16-16V48A16,16,0,0,0,208,32ZM72,48v8a8,8,0,0,0,16,0V48h80v8a8,8,0,0,0,16,0V48h24V80H48V48ZM208,208H48V96H208V208Zm-38.34-85.66a8,8,0,0,1,0,11.32l-48,48a8,8,0,0,1-11.32,0l-24-24a8,8,0,0,1,11.32-11.32L116,164.69l42.34-42.35A8,8,0,0,1,169.66,122.34Z"/></symbol>
<symbol id="scissors" viewBox="0 0 256 256"><path d="M157.73,113.13A8,8,0,0,1,159.82,102L227.48,55.7a8,8,0,0,1,9,13.21l-67.67,46.3a7.92,7.92,0,0,1-4.51,1.4A8,8,0,0,1,157.73,113.13Zm80.87,85.09a8,8,0,0,1-11.12,2.08L136,137.7,93.49,166.78a36,36,0,1,1-9-13.19L121.83,128,84.44,102.41a35.86,35.86,0,1,1,9-13.19l143,97.87A8,8,0,0,1,238.6,198.22ZM80,180a20,20,0,1,0-5.86,14.14A19.85,19.85,0,0,0,80,180ZM74.14,90.13a20,20,0,1,0-28.28,0A19.85,19.85,0,0,0,74.14,90.13Z"/></symbol>
<symbol id="spinner-gap" viewBox="0 0 256 256"><path d="M136,32V64a8,8,0,0,1-16,0V32a8,8,0,0,1,16,0Zm88,88H192a8,8,0,0,0,0,16h32a8,8,0,0,0,0-16Zm-45.09,47.6a8,8,0,0,0-11.31,11.31l22.62,22.63a8,8,0,0,0,11.32-11.32ZM128,184a8,8,0,0,0-8,8v32a8,8,0,0,0,16,0V192A8,8,0,0,0,128,184ZM77.09,167.6,54.46,190.22a8,8,0,0,0,11.32,11.32L88.4,178.91A8,8,0,0,0,77.09,167.6ZM72,128a8,8,0,0,0-8-8H32a8,8,0,0,0,0,16H64A8,8,0,0,0,72,128ZM65.78,54.46A8,8,0,0,0,54.46,65.78L77.09,88.4A8,8,0,0,0,88.4,77.09Z"/></symbol>
<symbol id="check-circle" viewBox="0 0 256 256"><path d="M173.66,98.34a8,8,0,0,1,0,11.32l-56,56a8,8,0,0,1-11.32,0l-24-24a8,8,0,0,1,11.32-11.32L112,148.69l50.34-50.35A8,8,0,0,1,173.66,98.34ZM232,128A104,104,0,1,1,128,24,104.11,104.11,0,0,1,232,128Zm-16,0a88,88,0,1,0-88,88A88.1,88.1,0,0,0,216,128Z"/></symbol>
<symbol id="warning-circle" viewBox="0 0 256 256"><path d="M128,24A104,104,0,1,0,232,128,104.11,104.11,0,0,0,128,24Zm0,192a88,88,0,1,1,88-88A88.1,88.1,0,0,1,128,216Zm-8-80V80a8,8,0,0,1,16,0v56a8,8,0,0,1-16,0Zm20,36a12,12,0,1,1-12-12A12,12,0,0,1,140,172Z"/></symbol>
<symbol id="calendar-x" viewBox="0 0 256 256"><path d="M208,32H184V24a8,8,0,0,0-16,0v8H88V24a8,8,0,0,0-16,0v8H48A16,16,0,0,0,32,48V208a16,16,0,0,0,16,16H208a16,16,0,0,0,16-16V48A16,16,0,0,0,208,32ZM72,48v8a8,8,0,0,0,16,0V48h80v8a8,8,0,0,0,16,0V48h24V80H48V48ZM208,208H48V96H208V208Zm-50.34-74.34L139.31,152l18.35,18.34a8,8,0,0,1-11.32,11.32L128,163.31l-18.34,18.35a8,8,0,0,1-11.32-11.32L116.69,152,98.34,133.66a8,8,0,0,1,11.32-11.32L128,140.69l18.34-18.35a8,8,0,0,1,11.32,11.32Z"/></symbol>
<symbol id="clock-counter-clockwise" viewBox="0 0 256 256"><path d="M136,80v43.47l36.12,21.67a8,8,0,0,1-8.24,13.72l-40-24A8,8,0,0,1,120,128V80a8,8,0,0,1,16,0Zm-8-48A95.44,95.44,0,0,0,60.08,60.15C52.81,67.51,46.35,74.59,40,82V64a8,8,0,0,0-16,0v40a8,8,0,0,0,8,8H72a8,8,0,0,0,0-16H49c7.15-8.42,14.27-16.35,22.39-24.57a80,80,0,1,1,1.66,114.75,8,8,0,1,0-11,11.64A96,96,0,1,0,128,32Z"/></symbol>
<symbol id="caret-right" viewBox="0 0 256 256"><path d="M181.66,133.66l-80,80a8,8,0,0,1-11.32-11.32L164.69,128,90.34,53.66a8,8,0,0,1,11.32-11.32l80,80A8,8,0,0,1,181.66,133.66Z"/></symbol>
<symbol id="chat-circle" viewBox="0 0 256 256"><path d="M128,24A104,104,0,0,0,36.18,176.88L24.83,210.93a16,16,0,0,0,20.24,20.24l34.05-11.35A104,104,0,1,0,128,24Zm0,192a87.87,87.87,0,0,1-44.06-11.81,8,8,0,0,0-6.54-.67L40,216,52.47,178.6a8,8,0,0,0-.66-6.54A88,88,0,1,1,128,216Z"/></symbol>
<symbol id="arrow-counter-clockwise" viewBox="0 0 256 256"><path d="M224,128a96,96,0,0,1-94.71,96H128A95.38,95.38,0,0,1,62.1,197.8a8,8,0,0,1,11-11.63A80,80,0,1,0,71.43,71.39a3.07,3.07,0,0,1-.26.25L44.59,96H72a8,8,0,0,1,0,16H24a8,8,0,0,1-8-8V56a8,8,0,0,1,16,0V85.8L60.25,60A96,96,0,0,1,224,128Z"/></symbol>
<symbol id="paper-plane-tilt" viewBox="0 0 256 256"><path d="M227.32,28.68a16,16,0,0,0-15.66-4.08l-.15,0L19.57,82.84a16,16,0,0,0-2.49,29.8L102,154l41.3,84.87A15.86,15.86,0,0,0,157.74,248q.69,0,1.38-.06a15.88,15.88,0,0,0,14-11.51l58.2-191.94c0-.05,0-.1,0-.15A16,16,0,0,0,227.32,28.68ZM157.83,231.85l-.05.14,0-.07-40.06-82.3,48-48a8,8,0,0,0-11.31-11.31l-48,48L24.08,98.25l-.07,0,.14,0L216,40Z"/></symbol>
<symbol id="plus" viewBox="0 0 256 256"><path d="M224,128a8,8,0,0,1-8,8H136v80a8,8,0,0,1-16,0V136H40a8,8,0,0,1,0-16h80V40a8,8,0,0,1,16,0v80h80A8,8,0,0,1,224,128Z"/></symbol>
<symbol id="caret-down" viewBox="0 0 256 256"><path d="M213.66,101.66l-80,80a8,8,0,0,1-11.32,0l-80-80A8,8,0,0,1,53.66,90.34L128,164.69l74.34-74.35a8,8,0,0,1,11.32,11.32Z"/></symbol>
<symbol id="pencil-simple" viewBox="0 0 256 256"><path d="M227.31,73.37,182.63,28.68a16,16,0,0,0-22.63,0L36.69,152A15.86,15.86,0,0,0,32,163.31V208a16,16,0,0,0,16,16H92.69A15.86,15.86,0,0,0,104,219.31L227.31,96a16,16,0,0,0,0-22.63ZM92.69,208H48V163.31l88-88L180.69,120ZM192,108.68,147.31,64l24-24L216,84.68Z"/></symbol>
<symbol id="archive" viewBox="0 0 256 256"><path d="M224,48H32A16,16,0,0,0,16,64V88a16,16,0,0,0,16,16v88a16,16,0,0,0,16,16H208a16,16,0,0,0,16-16V104a16,16,0,0,0,16-16V64A16,16,0,0,0,224,48ZM208,192H48V104H208ZM224,88H32V64H224V88ZM96,136a8,8,0,0,1,8-8h48a8,8,0,0,1,0,16H104A8,8,0,0,1,96,136Z"/></symbol>
<symbol id="user-focus" viewBox="0 0 256 256"><path d="M224,40V76a8,8,0,0,1-16,0V48H180a8,8,0,0,1,0-16h36A8,8,0,0,1,224,40Zm-8,132a8,8,0,0,0-8,8v28H180a8,8,0,0,0,0,16h36a8,8,0,0,0,8-8V180A8,8,0,0,0,216,172ZM76,208H48V180a8,8,0,0,0-16,0v36a8,8,0,0,0,8,8H76a8,8,0,0,0,0-16ZM40,84a8,8,0,0,0,8-8V48H76a8,8,0,0,0,0-16H40a8,8,0,0,0-8,8V76A8,8,0,0,0,40,84Zm136,92a8,8,0,0,1-6.41-3.19,52,52,0,0,0-83.2,0,8,8,0,1,1-12.8-9.62A67.94,67.94,0,0,1,101,141.51a40,40,0,1,1,53.94,0,67.94,67.94,0,0,1,27.43,21.68A8,8,0,0,1,176,176Zm-48-40a24,24,0,1,0-24-24A24,24,0,0,0,128,136Z"/></symbol>
<symbol id="dog" viewBox="0 0 256 256"><path d="M239.71,125l-16.42-88a16,16,0,0,0-19.61-12.58l-.31.09L150.85,40h-45.7L52.63,24.56l-.31-.09A16,16,0,0,0,32.71,37.05L16.29,125a15.77,15.77,0,0,0,9.12,17.52A16.26,16.26,0,0,0,32.12,144,15.48,15.48,0,0,0,40,141.84V184a40,40,0,0,0,40,40h96a40,40,0,0,0,40-40V141.85a15.5,15.5,0,0,0,7.87,2.16,16.31,16.31,0,0,0,6.72-1.47A15.77,15.77,0,0,0,239.71,125ZM32,128h0L48.43,40,90.5,52.37Zm144,80H136V195.31l13.66-13.65a8,8,0,0,0-11.32-11.32L128,180.69l-10.34-10.35a8,8,0,0,0-11.32,11.32L120,195.31V208H80a24,24,0,0,1-24-24V123.11L107.92,56h40.15L200,123.11V184A24,24,0,0,1,176,208Zm48-80L165.5,52.37,207.57,40,224,128ZM104,140a12,12,0,1,1-12-12A12,12,0,0,1,104,140Zm72,0a12,12,0,1,1-12-12A12,12,0,0,1,176,140Z"/></symbol>
<symbol id="cat" viewBox="0 0 256 256"><path d="M96,140a12,12,0,1,1-12-12A12,12,0,0,1,96,140Zm76-12a12,12,0,1,0,12,12A12,12,0,0,0,172,128Zm60-80v88c0,52.93-46.65,96-104,96S24,188.93,24,136V48A16,16,0,0,1,51.31,36.69c.14.14.26.27.38.41L69,57a111.22,111.22,0,0,1,118.1,0L204.31,37.1c.12-.14.24-.27.38-.41A16,16,0,0,1,232,48Zm-16,0-21.56,24.8A8,8,0,0,1,183.63,74,88.86,88.86,0,0,0,168,64.75V88a8,8,0,1,1-16,0V59.05a97.43,97.43,0,0,0-16-2.72V88a8,8,0,1,1-16,0V56.33a97.43,97.43,0,0,0-16,2.72V88a8,8,0,1,1-16,0V64.75A88.86,88.86,0,0,0,72.37,74a8,8,0,0,1-10.81-1.17L40,48v88c0,41.66,35.21,76,80,79.67V195.31l-13.66-13.66a8,8,0,0,1,11.32-11.31L128,180.68l10.34-10.34a8,8,0,0,1,11.32,11.31L136,195.31v20.36c44.79-3.69,80-38,80-79.67Z"/></symbol>
<symbol id="envelope" viewBox="0 0 256 256"><path d="M224,48H32A16,16,0,0,0,16,64V192a16,16,0,0,0,16,16H224a16,16,0,0,0,16-16V64A16,16,0,0,0,224,48Zm-20.57,16L128,133.15,52.57,64ZM32,192V74.19l90.59,83.05a8,8,0,0,0,10.82,0L224,74.19V192Z"/></symbol>
<symbol id="x-circle" viewBox="0 0 256 256"><path d="M128,24A104,104,0,1,0,232,128,104.11,104.11,0,0,0,128,24Zm0,192a88,88,0,1,1,88-88A88.1,88.1,0,0,1,128,216Zm37.66-114.34L139.31,128l26.35,26.34a8,8,0,0,1-11.32,11.32L128,139.31l-26.34,26.35a8,8,0,0,1-11.32-11.32L116.69,128,90.34,101.66a8,8,0,0,1,11.32-11.32L128,116.69l26.34-26.35a8,8,0,0,1,11.32,11.32Z"/></symbol>
<symbol id="eye" viewBox="0 0 256 256"><path d="M247.31,124.76c-.35-.79-8.82-19.58-27.64-38.41C194.62,61.3,162.88,48,128,48S61.38,61.3,36.33,86.35C17.51,105.18,9,124,8.69,124.76a8,8,0,0,0,0,6.48c.35.79,8.82,19.58,27.64,38.41C61.38,194.7,93.12,208,128,208s66.62-13.3,91.67-38.35c18.82-18.83,27.29-37.62,27.64-38.41A8,8,0,0,0,247.31,124.76ZM128,192c-30.78,0-58.68-11.19-81.91-32.93A130.4,130.4,0,0,1,25,128,130.4,130.4,0,0,1,46.09,96.93C69.32,75.19,97.22,64,128,64s58.68,11.19,81.91,32.93A130.4,130.4,0,0,1,231,128a130.4,130.4,0,0,1-21.09,31.07C186.68,180.81,158.78,192,128,192Zm0-112a48,48,0,1,0,48,48A48.05,48.05,0,0,0,128,80Zm0,80a32,32,0,1,1,32-32A32,32,0,0,1,128,160Z"/></symbol>
<symbol id="eye-slash" viewBox="0 0 256 256"><path d="M53.92,34.62a8,8,0,1,0-11.84,10.76l18.32,20.15A137.7,137.7,0,0,0,36.33,86.35C17.51,105.18,9,124,8.69,124.76a8,8,0,0,0,0,6.48c.35.79,8.82,19.58,27.64,38.41C61.38,194.7,93.12,208,128,208a116,116,0,0,0,40.79-7.34l33.29,36.62a8,8,0,1,0,11.84-10.76ZM128,192c-30.78,0-58.68-11.19-81.91-32.93A130.4,130.4,0,0,1,25,128,130.4,130.4,0,0,1,46.09,96.93,121.7,121.7,0,0,1,71.2,77.42l20.11,22.12A48,48,0,0,0,153.7,168.2l3.48,3.82A99.5,99.5,0,0,1,128,176a48,48,0,0,1-48-48,46.8,46.8,0,0,1,1.15-10.35l13.78,15.16A32,32,0,0,0,136.74,153l20.11,22.12A99.5,99.5,0,0,1,128,192Zm119.31-67.24c-.35-.79-8.82-19.58-27.64-38.41C194.62,61.3,162.88,48,128,48a118.1,118.1,0,0,0-23.54,2.34l14.46,15.91c3-.17,6-.25,9.08-.25,30.78,0,58.68,11.19,81.91,32.93A130.4,130.4,0,0,1,231,128a130.7,130.7,0,0,1-15.73,24.31,8,8,0,0,0,12.46,10A145.7,145.7,0,0,0,247.31,131.24,8,8,0,0,0,247.31,124.76Z"/></symbol>
<symbol id="user-circle" viewBox="0 0 256 256"><path d="M128,24A104,104,0,1,0,232,128,104.11,104.11,0,0,0,128,24Zm-45.8,166.4a56,56,0,0,1,91.6,0,87.8,87.8,0,0,1-91.6,0ZM96,112a32,32,0,1,1,32,32A32,32,0,0,1,96,112Zm91.1,67.2a72,72,0,0,0-32.3-30.5,48,48,0,1,0-53.6,0,72,72,0,0,0-32.3,30.5,88,88,0,1,1,118.2,0Z"/></symbol>
<symbol id="user" viewBox="0 0 256 256"><path d="M128,144a48,48,0,1,0-48-48A48.05,48.05,0,0,0,128,144Zm0-80a32,32,0,1,1-32,32A32,32,0,0,1,128,64Zm80,152a8,8,0,0,1-8,8H56a8,8,0,0,1-8-8,80,80,0,0,1,160,0Zm-16.44-8a64,64,0,0,0-127.12,0Z"/></symbol>
<symbol id="lock-key" viewBox="0 0 256 256"><path d="M208,80H176V56a48,48,0,0,0-96,0V80H48A16,16,0,0,0,32,96V216a16,16,0,0,0,16,16H208a16,16,0,0,0,16-16V96A16,16,0,0,0,208,80ZM96,56a32,32,0,0,1,64,0V80H96ZM208,216H48V96H208Zm-64-60a16,16,0,1,1-24-13.84V184a8,8,0,0,1-16,0V142.16A16,16,0,1,1,144,156Z"/></symbol>
<symbol id="shield-check" viewBox="0 0 256 256"><path d="M208,40H48A16,16,0,0,0,32,56v56c0,52.72,25.52,84.67,46.93,102.2,23.1,18.91,46,25.26,47,25.52a8,8,0,0,0,4.2,0c1-.26,23.89-6.61,47-25.52C198.48,196.67,224,164.72,224,112V56A16,16,0,0,0,208,40Zm0,72c0,37.07-13.33,67.16-39.61,89.42A111.4,111.4,0,0,1,128,223.62a111.4,111.4,0,0,1-40.39-22.2C61.33,179.16,48,149.07,48,112V56H208Zm-98.34,29.66-24-24a8,8,0,0,1,11.32-11.32L115.31,124l43-43a8,8,0,0,1,11.32,11.32l-48.66,49.34A8,8,0,0,1,109.66,141.66Z"/></symbol>
<symbol id="stethoscope" viewBox="0 0 256 256"><path d="M240,128a32,32,0,0,0-24-31V72a40,40,0,0,0-40-40H160a8,8,0,0,0,0,16h16a24,24,0,0,1,24,24v24a32,32,0,0,0,8,62.99V168a48,48,0,0,1-96,0v-9.6A72.1,72.1,0,0,0,176,88V40a8,8,0,0,0-8-8H144a8,8,0,0,0,0,16h16V88a56,56,0,0,1-112,0V48H64a8,8,0,0,0,0-16H40a8,8,0,0,0-8,8V88a72.1,72.1,0,0,0,64,71.55V168a64,64,0,0,0,128,0v-9A32,32,0,0,0,240,128Zm-32,16a16,16,0,1,1,16-16A16,16,0,0,1,208,144Z"/></symbol>
<symbol id="syringe" viewBox="0 0 256 256"><path d="M237.66,77.66a8,8,0,0,0,0-11.32l-48-48a8,8,0,0,0-11.32,11.32L192,43.31,168,67.31,154.34,53.66A8,8,0,0,0,143,65l8,8L60.69,163.31A15.86,15.86,0,0,0,56,174.63V192L18.34,229.66a8,8,0,0,0,11.32,11.32L67.31,203.31H84.69A15.86,15.86,0,0,0,96,198.63L186.34,108.3l8,8A8,8,0,0,0,205.66,105L192,91.31l24-24,10.34,10.35A8,8,0,0,0,237.66,77.66ZM84.69,187.31H72V174.63l16-16L97.37,168a8,8,0,0,0,11.32-11.32l-9.38-9.37L120,126.63l9.37,9.37a8,8,0,0,0,11.32-11.32l-9.38-9.37L162.34,84.3,175,97Z"/></symbol>
</svg>
